<svg width="10" height="32" viewBox="0 0 10 32" fill="none" xmlns="http://www.w3.org/2000/svg">
<path d="M8.16407 7.98401H1.67226C0.749603 7.98401 0 8.73404 0 9.65627V29.9055C0 30.8251 0.749603 31.5777 1.67226 31.5777H8.16407C9.08414 31.5777 9.83633 30.8307 9.83633 29.9055V9.65627C9.83633 8.73361 9.08888 7.98401 8.16407 7.98401ZM7.82962 9.99029V18.4198H5.94417V10.78H3.93747V18.4202H2.00628V9.99029H7.82962ZM2.00628 29.571V19.9069H7.82962V29.571H2.00628Z" fill="#0036C3"/>
<path d="M3.93622 4.0734L3.93752 7.15424H5.94422L5.94293 4.0734C6.63039 3.70745 7.11373 3.00704 7.11373 2.17631C7.11373 0.97703 6.14015 0 4.93958 0C3.7403 0 2.76845 0.977462 2.76413 2.17631C2.76586 3.00704 3.24919 3.70745 3.93622 4.0734Z" fill="#0036C3"/>
</svg>
