<svg width="28" height="29" viewBox="0 0 28 29" fill="none" xmlns="http://www.w3.org/2000/svg">
<g clip-path="url(#clip0_1_1322)">
<path d="M23.7767 10.6311L22.3417 12.7895C23.0337 14.1697 23.3725 15.7001 23.3277 17.2435C23.2829 18.7868 22.8559 20.295 22.085 21.6328H5.915C4.91303 19.8946 4.49785 17.8798 4.731 15.887C4.96415 13.8943 5.83323 12.0298 7.20939 10.5698C8.58556 9.10983 10.3955 8.13217 12.371 7.78177C14.3465 7.43137 16.3823 7.72686 18.1767 8.62446L20.335 7.18946C18.1376 5.78038 15.531 5.14896 12.9324 5.39622C10.3337 5.64347 7.89302 6.7551 6.00074 8.55331C4.10847 10.3515 2.87392 12.7324 2.49459 15.3151C2.11525 17.8978 2.61304 20.5331 3.90833 22.7995C4.11193 23.1521 4.40427 23.4453 4.7563 23.65C5.10834 23.8547 5.5078 23.9637 5.915 23.9661H22.0733C22.4845 23.9678 22.8888 23.8607 23.2453 23.6558C23.6017 23.451 23.8978 23.1555 24.1033 22.7995C25.1783 20.9374 25.7177 18.8144 25.6621 16.6651C25.6066 14.5157 24.9581 12.4235 23.7883 10.6195L23.7767 10.6311ZM12.355 18.6111C12.5717 18.8281 12.829 19.0002 13.1123 19.1176C13.3956 19.235 13.6992 19.2955 14.0058 19.2955C14.3125 19.2955 14.6161 19.235 14.8994 19.1176C15.1826 19.0002 15.44 18.8281 15.6567 18.6111L22.26 8.70613L12.355 15.3095C12.1381 15.5262 11.966 15.7835 11.8485 16.0668C11.7311 16.35 11.6707 16.6537 11.6707 16.9603C11.6707 17.2669 11.7311 17.5706 11.8485 17.8538C11.966 18.1371 12.1381 18.3944 12.355 18.6111Z" fill="#0036C3"/>
</g>
<defs>
<clipPath id="clip0_1_1322">
<rect width="28" height="28" fill="white" transform="translate(0 0.632812)"/>
</clipPath>
</defs>
</svg>
