<svg width="27" height="27" viewBox="0 0 27 27" fill="none" xmlns="http://www.w3.org/2000/svg">
<path d="M19.0239 7.5418C18.5624 7.5418 18.2096 7.92182 18.2096 8.35613V13.2693H14.1107V8.38328C14.1107 7.92182 13.7307 7.56895 13.2964 7.56895C12.835 7.56895 12.4821 7.94897 12.4821 8.38328V13.2964H8.79044V8.38328C8.79044 7.92182 8.41042 7.56895 7.97611 7.56895C7.5418 7.56895 7.16178 7.94897 7.16178 8.38328V18.6439C7.16178 19.1053 7.5418 19.4582 7.97611 19.4582C8.41042 19.4582 8.79044 19.0782 8.79044 18.6439V14.9251H12.4821V18.6167C12.4821 19.0782 12.8621 19.4311 13.2964 19.4311C13.7579 19.4311 14.1107 19.051 14.1107 18.6167V14.9251H19.0239C19.4853 14.9251 19.8382 14.5451 19.8382 14.1107V8.38328C19.8382 7.92182 19.4853 7.5418 19.0239 7.5418ZM13.4864 1C6.59175 1 1 6.59175 1 13.4864C1 20.3811 6.59175 26 13.5136 26C20.4354 26 26 20.4083 26 13.4864C26 6.59175 20.4083 1 13.4864 1ZM13.4864 24.3713C7.48751 24.3713 2.62866 19.4853 2.62866 13.5136C2.62866 7.51466 7.51466 2.65581 13.4864 2.65581C19.4582 2.65581 24.3442 7.5418 24.3442 13.5136C24.3713 19.4853 19.4853 24.3713 13.4864 24.3713Z" fill="#0036C3" stroke="#0036C3" stroke-width="0.5"/>
</svg>
