<svg width="26" height="27" viewBox="0 0 26 27" fill="none" xmlns="http://www.w3.org/2000/svg">
<path d="M13.1494 3.67383H4.67915C4.22624 3.67383 3.79187 3.84398 3.47161 4.14686C3.15136 4.44973 2.97144 4.86052 2.97144 5.28885V11.5229C2.97144 11.7799 3.07939 12.0263 3.27154 12.2081C3.4637 12.3898 3.72432 12.4919 3.99607 12.4919H13.8325C14.1043 12.4919 14.3649 12.3898 14.557 12.2081C14.7492 12.0263 14.8572 11.7799 14.8572 11.5229V5.28885C14.8572 4.86052 14.6772 4.44973 14.357 4.14686C14.0367 3.84398 13.6023 3.67383 13.1494 3.67383ZM12.8079 10.5538H5.0207V5.61186H12.8079V10.5538Z" fill="#0036C3"/>
<path d="M20.4262 0L19.1262 1.42033L24.05 5.58056V18.7352C24.0336 19.0481 23.8937 19.343 23.6593 19.5589C23.425 19.7747 23.114 19.8951 22.7906 19.8951C22.4672 19.8951 22.1562 19.7747 21.9219 19.5589C21.6875 19.343 21.5476 19.0481 21.5312 18.7352V9.87621C21.5312 9.12448 21.2231 8.40355 20.6745 7.872C20.126 7.34046 19.382 7.04184 18.6062 7.04184H17.875V4.62632C17.875 3.45698 17.3956 2.33553 16.5423 1.50867C15.689 0.681822 14.5317 0.217302 13.325 0.217302H4.54999C3.34326 0.217302 2.18595 0.681822 1.33266 1.50867C0.479373 2.33553 0 3.45698 0 4.62632V25.5093C0 25.7599 0.102723 26.0002 0.28557 26.1774C0.468418 26.3546 0.716413 26.4541 0.974999 26.4541H16.9C17.1586 26.4541 17.4066 26.3546 17.5894 26.1774C17.7723 26.0002 17.875 25.7599 17.875 25.5093V8.93142H18.6062C18.8648 8.93142 19.1128 9.03096 19.2957 9.20814C19.4785 9.38532 19.5812 9.62563 19.5812 9.87621V18.7352C19.6078 19.5429 19.9575 20.3089 20.5565 20.8711C21.1555 21.4333 21.9567 21.7477 22.7906 21.7477C23.6245 21.7477 24.4257 21.4333 25.0247 20.8711C25.6237 20.3089 25.9734 19.5429 26 18.7352V5.15226C26.0011 5.01806 25.9727 4.88517 25.9166 4.76245C25.8606 4.63972 25.7782 4.52998 25.675 4.44051L20.4262 0ZM15.925 24.5645H1.95V4.62632C1.95 3.95813 2.22393 3.3173 2.71152 2.84481C3.19911 2.37232 3.86043 2.10688 4.54999 2.10688H13.325C14.0145 2.10688 14.6759 2.37232 15.1635 2.84481C15.6511 3.3173 15.925 3.95813 15.925 4.62632V24.5645Z" fill="#0036C3"/>
</svg>
